<svg version="1.1" id="Layer_1" xmlns="http://www.w3.org/2000/svg" xmlns:xlink="http://www.w3.org/1999/xlink" x="0px" y="0px"
	 width="100%" viewBox="0 0 496 496" enable-background="new 0 0 496 496" xml:space="preserve">
<path fill="#000000" opacity="1.000000" stroke="none" 
	d="
M192.444794,138.197342 
	C194.864578,138.894196 195.297287,140.493347 195.166901,142.238464 
	C194.899078,145.822815 196.644196,147.005157 199.961166,146.619278 
	C202.802658,146.288727 204.038544,147.987411 203.990265,150.464630 
	C203.920715,154.034271 205.856247,156.315216 208.618179,158.779099 
	C210.682510,153.280594 215.393387,149.799759 217.502899,144.370590 
	C219.280472,139.795715 223.604553,138.035965 228.544846,138.233948 
	C233.592850,138.436249 236.979431,141.060104 238.866760,145.595306 
	C239.570419,147.286179 240.099960,148.957794 241.396912,150.374191 
	C249.226944,158.925446 250.352982,168.717590 245.854492,179.061691 
	C244.269714,182.705887 245.234818,184.582428 247.259018,187.756729 
	C252.071457,195.303452 258.208008,202.549362 257.252106,213.250381 
	C261.552612,210.099350 265.417053,208.395737 269.964966,208.888657 
	C276.227936,209.567429 279.937347,213.303177 280.300659,219.624268 
	C280.462921,222.447067 280.331757,225.285721 280.380951,228.116348 
	C280.423187,230.548050 280.301727,232.707214 282.596039,234.790451 
	C285.167816,237.125626 283.466003,242.917206 280.282745,244.362061 
	C279.276215,244.818893 278.500702,245.306366 278.398254,246.404678 
	C278.067169,249.955048 275.420166,249.910934 272.887390,249.984802 
	C270.394928,250.057495 269.127167,248.990967 267.540314,246.707291 
	C265.374786,243.590759 261.521545,241.646927 258.382233,239.192825 
	C256.784454,240.539047 257.283234,242.199310 257.431244,243.510971 
	C257.998505,248.536667 255.937973,250.239136 250.934998,250.165848 
	C235.448669,249.939026 219.956848,250.068832 204.467239,250.100922 
	C201.235901,250.107620 198.375961,249.967392 198.543411,245.498123 
	C198.629944,243.188751 196.917786,242.426086 194.840378,242.397812 
	C192.675400,242.368347 190.510056,242.321671 188.345215,242.335007 
	C185.663300,242.351501 183.089203,242.020905 182.932495,238.638077 
	C182.765076,235.024139 185.445038,234.347824 188.294312,234.167236 
	C190.287048,234.040955 192.290222,234.087860 194.285767,233.994385 
	C195.912888,233.918167 197.663116,233.991882 198.389679,231.968460 
	C197.258667,229.082169 194.639404,230.203308 192.751175,229.844208 
	C185.975128,228.555557 182.576202,224.997345 182.790680,218.983871 
	C183.000900,213.089691 186.871948,209.201279 193.624283,208.942795 
	C197.078308,208.810577 198.504166,207.450165 199.620178,204.352692 
	C202.091736,197.492996 205.177353,190.864105 210.270157,185.467560 
	C213.552322,181.989639 209.140305,180.301773 208.679016,177.246811 
	C204.445358,188.419006 195.163864,185.038956 187.280014,185.166595 
	C183.880447,185.221603 183.285568,182.031998 183.865326,179.641449 
	C185.360168,173.477600 180.426620,168.826447 180.462692,163.037125 
	C180.474548,161.134735 178.360962,161.139542 176.887558,161.233521 
	C173.123947,161.473618 171.801270,159.560715 171.962234,156.085464 
	C172.031494,154.590576 171.990906,153.086105 171.917618,151.590012 
	C171.760696,148.385971 172.859268,146.438705 176.455780,146.641312 
	C178.592972,146.761703 180.851425,146.408264 180.591400,143.635651 
	C180.113480,138.539810 183.023132,137.782944 187.019623,138.002319 
	C188.680588,138.093491 190.347610,138.074493 192.444794,138.197342 
M249.854187,208.020584 
	C244.481384,210.296967 242.369888,208.950821 241.024673,202.391525 
	C237.309464,202.727310 237.082733,205.301208 237.429672,208.136887 
	C237.784439,211.036453 240.107147,210.564178 242.039276,210.636353 
	C243.698853,210.698318 245.362747,210.699738 247.023392,210.664352 
	C249.441711,210.612823 251.260117,211.057693 251.261551,214.129959 
	C251.262878,216.979630 250.674484,219.194168 247.306900,219.185532 
	C243.337570,219.175354 239.334702,219.800247 235.406128,218.733994 
	C231.425293,217.653519 229.847626,219.331055 229.896637,223.268585 
	C229.977173,229.738708 230.102081,236.219040 229.822113,242.678329 
	C229.683167,245.883636 230.850845,246.773788 233.789169,246.698822 
	C238.770615,246.571747 243.763611,246.524902 248.740677,246.722702 
	C252.346054,246.865982 253.801208,245.603928 253.738983,241.856110 
	C253.565247,231.390945 253.686234,220.921005 253.671082,210.452988 
	C253.668549,208.707794 253.706131,206.913208 252.136337,205.502625 
	C251.400803,206.309113 250.847382,206.915924 249.854187,208.020584 
M211.374985,171.932144 
	C213.704407,182.072891 216.903931,184.735779 226.813843,184.780182 
	C228.145523,184.786148 229.496414,184.643936 230.805634,184.817520 
	C236.987091,185.637100 240.340958,182.203156 242.808365,177.165573 
	C244.637115,173.431854 244.949326,169.510452 244.648422,165.489960 
	C244.112808,158.333359 240.740753,156.577560 234.357132,160.129471 
	C230.640945,162.197174 226.905930,162.757950 222.917130,160.894516 
	C213.634430,156.557953 211.364853,158.084610 211.348404,168.580200 
	C211.347092,169.412491 211.349869,170.244797 211.374985,171.932144 
M221.327316,223.608994 
	C221.002411,214.535629 217.012161,208.596085 211.370865,208.788635 
	C214.273453,214.986328 213.939377,215.708313 206.923935,218.343384 
	C206.825729,221.085037 208.141449,223.232635 210.273636,224.644943 
	C214.463593,227.420242 213.812302,231.072464 212.718628,235.030167 
	C211.630051,238.969498 209.120102,241.297501 205.227417,242.203583 
	C203.609543,242.580154 202.238373,243.207230 202.630844,245.128586 
	C202.987167,246.872971 204.609055,246.635223 205.900009,246.641190 
	C211.390182,246.666534 216.880737,246.615173 222.370834,246.647217 
	C224.586365,246.660156 225.845261,245.788086 225.842133,243.447845 
	C225.834610,237.826706 225.839722,232.205566 225.839722,226.521957 
	C219.755814,227.387360 219.755814,227.387360 221.327316,223.608994 
M233.659821,143.807800 
	C229.746796,140.690536 225.746567,140.318497 222.015228,143.918015 
	C219.108276,146.722290 218.283478,150.150925 220.381119,153.879898 
	C222.892258,158.343948 227.740265,159.833557 231.840134,157.461700 
	C236.757401,154.616959 237.596405,149.889053 233.659821,143.807800 
M177.190353,157.505783 
	C179.380692,157.450531 182.523422,158.961044 183.363144,156.145813 
	C184.549484,152.168579 187.446014,152.190094 190.340973,151.975006 
	C193.432114,151.745346 196.553513,151.923264 199.661713,151.923264 
	C196.506104,149.732452 191.127670,152.064636 191.601929,145.564377 
	C191.778275,143.147354 191.225388,141.361923 188.148621,141.325394 
	C184.890137,141.286713 184.188339,143.131027 184.271484,145.780624 
	C184.368225,148.862930 183.024857,150.181030 179.837738,150.375961 
	C174.896423,150.678223 174.341629,152.044174 177.190353,157.505783 
M212.567093,199.107056 
	C211.412109,198.073288 211.048340,196.035309 208.941071,196.182755 
	C207.303360,200.575012 208.561539,203.948807 212.691620,204.939758 
	C217.365250,206.061111 220.248047,208.678619 221.757782,213.172943 
	C222.756729,216.146713 224.085495,219.009689 225.470612,222.425323 
	C226.835251,216.088699 225.359360,211.610046 221.189255,207.329376 
	C218.559296,204.629669 215.332413,202.607147 212.567093,199.107056 
M223.048660,197.590775 
	C219.969757,196.016022 218.802628,190.201080 213.435440,192.822525 
	C214.566483,197.817062 217.858917,198.449295 221.613007,197.885101 
	C222.992935,200.568741 221.202621,204.428024 225.376862,205.616699 
	C226.617767,202.595383 225.797806,200.199036 223.048660,197.590775 
M196.547821,162.271912 
	C193.539474,167.716812 193.430618,173.484329 196.835541,176.565186 
	C198.407913,171.674301 198.091736,167.126404 196.547821,162.271912 
M270.393494,223.411209 
	C269.772705,221.730011 270.430603,219.300110 267.204315,218.531082 
	C265.674591,222.932129 266.171204,227.130081 266.792297,231.812378 
	C269.100220,229.298874 270.910400,227.199265 270.393494,223.411209 
M203.792801,208.445709 
	C207.426117,206.969955 207.126831,204.766312 204.996628,201.601990 
	C203.540970,203.993088 202.216721,205.794632 203.792801,208.445709 
M195.691360,217.479446 
	C194.080444,217.955322 192.698410,218.821198 194.270233,220.469055 
	C195.225037,221.470047 197.179413,221.986954 198.149612,220.482178 
	C199.184708,218.876740 198.155823,217.753860 195.691360,217.479446 
M246.389832,214.775269 
	C244.066254,213.973419 241.817169,214.251205 239.596664,215.138840 
	C241.855850,215.557114 244.092072,216.107285 246.389832,214.775269 
z"/>
<path fill="#000000" opacity="1.000000" stroke="none" 
	d="
M261.200928,183.367065 
	C252.433655,183.090546 248.917633,179.587433 249.088318,171.286072 
	C249.180099,166.821518 248.379456,162.341293 249.570953,157.872696 
	C250.682907,153.702408 253.111542,151.233810 257.369263,150.539413 
	C263.160461,149.594894 268.986389,149.910034 274.800812,150.099747 
	C277.701172,150.194366 279.494080,151.590744 279.294403,154.809250 
	C279.093719,158.044876 276.855713,158.349594 274.356506,158.349808 
	C271.361328,158.350082 268.360779,158.489761 265.372284,158.353973 
	C261.033173,158.156815 259.501617,160.416992 259.318359,164.419617 
	C258.840637,174.852051 258.783417,174.838120 269.270050,174.880005 
	C271.428253,174.888626 273.617371,174.813004 275.736145,175.139923 
	C278.481354,175.563477 279.636932,177.457260 279.370636,180.190964 
	C279.120361,182.760361 277.394348,183.387558 275.151062,183.376144 
	C270.658386,183.353317 266.165497,183.369629 261.200928,183.367065 
z"/>
</svg>